<svg width="16" height="17" viewBox="0 0 16 17" fill="none" xmlns="http://www.w3.org/2000/svg">
<path d="M12.5435 7.19713C12.8692 9.45383 10.5333 9.93136 9.18941 9.8896C9.10311 9.88692 9.02179 9.92892 8.97081 9.99861C8.83179 10.1887 8.60957 10.4344 8.43802 10.4344C8.24533 10.4344 8.07193 10.8049 7.99285 11.0355C7.98455 11.0597 8.00836 11.082 8.0327 11.0741C10.1611 10.383 10.9962 10.146 11.356 10.2126C11.6465 10.2664 12.1897 11.2388 12.4251 11.7183C11.8401 11.7519 11.6451 11.2276 11.5107 11.1335C11.4031 11.0582 11.3627 11.4023 11.356 11.5838C11.2283 11.5166 11.0669 11.4225 11.0535 11.1335C11.04 10.8444 10.8921 10.9184 10.7778 10.9318C10.6635 10.9453 8.90866 11.5099 8.64645 11.5838C8.38423 11.6578 8.08167 11.7586 7.8329 11.9334C7.41604 12.135 7.1471 11.9938 7.07314 11.651C7.01398 11.3768 7.39811 10.533 7.59758 10.1454C7.35105 10.2372 6.83916 10.4237 6.76386 10.4344C6.69083 10.4448 5.76452 11.16 5.26914 11.5485C5.24025 11.5712 5.22165 11.6044 5.215 11.6405C5.13575 12.0711 4.88279 12.1917 4.44425 12.4173C4.09134 12.5989 2.85883 14.4929 2.22507 15.5154C2.18124 15.5861 2.11693 15.6404 2.04787 15.6868C1.64531 15.957 1.23532 16.6448 1.06904 16.9813C0.832372 16.2984 1.14076 15.7109 1.32453 15.5026C1.24385 15.4327 1.05783 15.4734 0.97491 15.5026C1.20351 14.7161 2.00361 14.7161 1.97671 14.7161C2.12463 14.5884 3.8593 12.1081 3.89964 11.9938C3.93966 11.8805 3.87382 11.3504 4.74565 11.0598C4.7595 11.0552 4.77323 11.0489 4.78551 11.041C5.46474 10.6044 5.97428 9.90068 6.1453 9.60093C5.23846 9.53857 4.20001 9.03299 3.65705 8.70825C3.54 8.63825 3.41587 8.57732 3.28035 8.56199C2.53692 8.47785 1.79256 8.95341 1.49262 9.22451C1.36891 9.05243 1.50831 8.55234 1.59347 8.3238C1.29226 8.28079 0.849405 8.71814 0.665628 8.9422C0.466612 8.63031 0.640976 8.07286 0.753034 7.83312C0.355002 7.84387 0.0851646 8.02581 0 8.11543C0.329452 5.66201 2.84945 6.37554 2.87767 6.40812C2.7432 6.26831 2.7544 6.08548 2.77681 6.01154C4.30305 6.05187 5.01575 5.79644 5.46622 5.5343C9.01624 3.5514 10.5458 4.76802 11.1106 5.07386C11.6754 5.3797 12.7007 5.50405 13.4101 5.22174C14.2572 4.8386 14.1297 3.85102 13.958 3.4741C13.7698 3.06071 12.7075 2.48935 12.3309 1.76678C11.9544 1.04421 12.2825 0.165518 12.7187 0.0430443C13.1343 -0.0736465 13.431 0.0621091 13.6588 0.267841C13.8107 0.404999 14.2371 0.5031 14.4152 0.566956C14.5934 0.630812 14.8892 0.714833 14.8724 0.765246C14.8556 0.815659 14.5704 0.808931 14.5262 0.808931C14.4354 0.808931 14.3278 0.822374 14.4354 0.872787C14.5616 0.923945 14.752 0.998298 14.8431 1.04724C14.855 1.0536 14.8525 1.07018 14.8395 1.07367C14.2208 1.24018 13.6684 0.896597 13.2588 1.29289C12.8419 1.69619 13.7294 2.00539 14.1866 2.48935C14.6438 2.97332 15.1145 3.55138 14.738 4.86884C14.4465 5.88877 13.2248 6.75595 12.5938 7.09515C12.5575 7.11466 12.5376 7.15633 12.5435 7.19713Z" fill="black"/>
</svg>
